<?xml version="1.0" encoding="UTF-8"?>
<svg version="1.1" viewBox="0 0 2048 723" width="331" height="117" xmlns="http://www.w3.org/2000/svg">
<path transform="translate(0)" d="m0 0h2048v723h-2048z" fill="#FCFBFB"/>
<path transform="translate(381,48)" d="m0 0h38l29 2 19 3 25 7 28 10 26 12 23 13 12 8 19 14 14 12 23 23 9 11 12 16 13 20 12 23 8 18 10 31 5 21 3 20 2 24v56l-3 27-6 24-10 29-3 6h-1l-4-16-6-7-3-5-3-4-5-10-8-7-6-2-9-5-3-1-16-2-9-2h-3l-17-9-43-18-27-10-18-5h-6l-3 9h-2l-2 9-3 10-2 22-5 32-5 27-2 3-3 1-8 12-7 10-12 16-1 5-33 2h-21l-17-1-3-1-12-20-7-11-10-18-4-10-5-20-7-33-11-32-2-5-5 1-29 13-15 8-8 7-5 7-25 9-28 12-22 11-3 3 1 7-5 3-7 10-10 17-9 17-7 11-2 2-7-11-13-25-9-24-9-28-5-23-2-20v-50l2-25 4-24 7-25 9-24 9-20 11-21 12-19 14-19 11-13 14-15 8-7 11-10 13-10 17-12 20-12 16-8 18-8 27-9 25-6 22-3z" fill="#CBCFC0"/>
<path transform="translate(417,114)" d="m0 0h2v9l3 1-1 6h-2l-1 3v7l3-2 4-8 1 4v4h3l2 3 1-4h2l-1 8 4-1 1 2h3l1 7 2 1v-6l2-4 5 2 5 3 1-3h2v5l3-5v-4l-4 1-2-2 1-5 2-2 5-1 2 6 2-2v-7l3 1v3l3 1v2h2v-5h4l2 4h3v2h-2l3 3v-2h2v2h5l3 3v2l5 1 1 7-1 3 5 1-1 2 2 4 1 6 3-1 2 4-4-1 1 2 3 1v4l1-2 3 1 4 6 7 8 5 5 5 6v5l-6-3-4-8-8-8-3-1 3 6 1 3 7 2-2 1 8 15 2 12-1 7-1 1v15l-4 18-5 13-5 8-6 3h-2l-1 3h-2v8l2 7-2 7-1 23-4 24-12 39-2 22-5 32-5 27-2 3-3 1-8 12-7 10-12 16-1 5-33 2h-21l-17-1-3-1-12-20-7-11-10-18-4-10-5-20-7-33-11-32-3-7-5-22-4-30-1-12v-26l-3-16-10-19-2-9-1-14-2-9v-8l4-19 6-12 5-9 2-10 2-5 5-8 3-5 5-2 1 2 4-6 5-2 2-3h2l2 3 4-1 1 6-1 2 7-10h3l1-4h2v-5l2 1 5-5 1 3h-2l2 2 2-3 2 4 1-6 4-2h5l4 1 2 5 2 1-2-8 1-2-4 1 1-3 6 1 1 2 4-4 2 1 1 9-3 3-1-5v6l2 14 2 4 1-4h2l3-4 3 1-1-5h-3l-1 2h-3l-1-3v-8l2-6-2-5 7 1v3h2l1 6-1 3 3-2-1-8 1-2 8-1 2 2 1 6 1-2h2z" fill="#DE8F68"/>
<path transform="translate(224,534)" d="m0 0h28l111 1 11 1h73l155-1 5 2 7 11 6 9 4 14 1 3-11 12-9 9-17 13-14 10-22 13-16 8-21 9-22 8-25 7-23 4-9 1-25 1h-17l-32-2-23-4-20-5-30-10-26-11-22-12-22-14-14-11-13-11-13-12-11-12-11-14-8-11v-2l3 1 1 2h2v-2l2-1-2-2 1-1z" fill="#C6C3C0"/>
<path transform="translate(417,114)" d="m0 0h2v9l3 1-1 6h-2l-1 3v7l3-2 4-8 1 4v4h3l2 3 1-4h2l-1 8 4-1 1 2h3l1 7 2 1v-6l2-4 5 2 5 3 1-3h2v5l3-5v-4l-4 1-2-2 1-5 2-2 5-1 2 6 2-2v-7l3 1v3l3 1v2h2v-5h4l2 4h3v2h-2l3 3v-2h2v2h5l3 3v2l5 1 1 7-1 3 5 1-1 2 2 4 1 6 3-1 2 4-4-1 1 2 3 1v4l1-2 3 1 4 6 7 8 5 5 5 6v5l-6-3-4-8-8-8-3-1 3 6 1 3 7 2-2 1 8 15 2 12-1 7-1 1v15l-4 18-5 13-5 8-6 3h-2l-1 3h-2v15l-7 1v-23l-3-11-6-6 1-9 2-10-1-27-5-5-4-1h-2l-7-12-11-4-5-1-8 4-19 4-12 4-8 2-11 5-7-3-32-5-13-1-9-3h-9l-8 6-4 8-2 9v22l-5 16-4 13 1 9 1 4h9l8-4 12-2h9l21 3v2l9 3 7 4 8 7 2 1v5l-3 4-4 15-10 18-5 5-5 2h-27l-10-5-7-6-4-12-2-18 2-16 10-3h7l9 4 1 5v4l6 2h26l2-1 2-7-6-2-2 4-9 1-10 1v-2l-4-2-2-6h4l-5-2h-29l-5 5-3 1-1 3-3 4h-2v6l2 1 1 8 1 14 3 17 2 5 3 17 5 13 3 10 6 13v2h2l4 6 4 3v2l4 1 16 16 11 6 14 4 14 2 17-2 13-4 10-5 4-3 5-2 3-3 5-3 13-14 2-4 2-2 6-8 7-10 9-25 4-16 2-11h1v8l-4 18-10 32-2 22-5 32-5 27-2 3-3 1-8 12-7 10-12 16-1 5-33 2h-21l-17-1-3-1-12-20-7-11-10-18-4-10-5-20-7-33-11-32-3-7-5-22-4-30-1-12v-26l-3-16-10-19-2-9-1-14-2-9v-8l4-19 6-12 5-9 2-10 2-5 5-8 3-5 5-2 1 2 4-6 5-2 2-3h2l2 3 4-1 1 6-1 2 7-10h3l1-4h2v-5l2 1 5-5 1 3h-2l2 2 2-3 2 4 1-6 4-2h5l4 1 2 5 2 1-2-8 1-2-4 1 1-3 6 1 1 2 4-4 2 1 1 9-3 3-1-5v6l2 14 2 4 1-4h2l3-4 3 1-1-5h-3l-1 2h-3l-1-3v-8l2-6-2-5 7 1v3h2l1 6-1 3 3-2-1-8 1-2 8-1 2 2 1 6 1-2h2z" fill="#201F20"/>
<path transform="translate(303,175)" d="m0 0h1l1 9 1 2v7l3-3h2l1 4v8l1 1h7l-1 8 3 3-1 9-2 9v22l-5 16-4 13 1 9 1 4h9l8-4 12-2h9l21 3v2l9 3 7 4 8 7 2 1v5l-3 4-4 15-10 18-5 5-5 2h-27l-10-5-7-6-4-12-2-18 2-16 10-3h7l9 4 1 5v4l6 2h26l2-1 2-7-6-2-2 4-9 1-10 1v-2l-4-2-2-6h4l-5-2h-29l-5 5-3 1-1 3-3 4h-2v6l2 1 1 8 1 14 3 17 2 5 3 17 5 13 3 10 6 13v2h2l4 6 4 3v2l4 1 16 16 11 6 14 4 14 2 17-2 13-4 10-5 4-3 5-2 3-3 5-3 13-14 2-4 2-2 6-8 7-10 9-25 4-16 2-11h1v8l-4 18-10 32-2 22-5 32-5 27-2 3-3 1-8 12-7 10-12 16-1 5-33 2h-21l-17-1-3-1-12-20-7-11-10-18-4-10-5-20-7-33-11-32-3-7-5-22-4-30-1-12v-26l-3-16-10-19-2-9-1-14-2-9v-8l4-19 2-5 6-2 3-5 1-6z" fill="#040303"/>
<path transform="translate(453,212)" d="m0 0h14l5 3 6 9 10 1 2 5v16l-3 11v10l3 7 4 6 3 2v2h2l3 6 1 17-1 4 5-2-2 9-5-2-2 3-3 9-1 2h7v23l-3 16-4 12-2 9-4 1-1 6-8 4-5 4-5 5-8 13-2 7-5 1h-7l-3 9-5 4-1 2h-3v2h-4v2l-10 2-11-1-6-5-10-1-2 3h-5l-1-6-5-1-3 5-1-2 2-6 5-2 1-2 7 1 5-2 11-2 3-3h2v-2h5v-4h-2l-1-5-10 3-3-2v2l-4-1-2-2-5-2-3-2v-2h10l13-3h7l4 3 5 1v2l6 2 8 4 2 5 6 2 3-2v-5l-2-6-1-6h-2l-2-9h-2l-4-4-14-1-14-4-3-2 1-4 4-3 4-2-12 5h-9l-1-3h-2v-2l-4-2-2-2-2-7 2-2h2l3-12 2-13v-8l3-11 1-1h5l7 10 4 7 3 3 4 10 4 8 5 2v2h11l11 3h10l7-3 5-2 4-5 4-9 2-12 3-4h4l-8-18-3-3-11-3-1-3h-2v-2l14-1-9-2-6-1-31-1-12-2h-16l-12-3-4-2-9-2-2-9-1-1v-5l5-9 4-3h4l1-4 1-1h5l-5-11-1-10 2-4h7l8 1 3-7 9-5 16-4z" fill="#FDBF97"/>
<path transform="translate(1324,411)" d="m0 0h52l15 1 12 3 10 5 7 6 6 10 4 11 1 16-3 14-5 10-5 6-10 7-12 4-18 2-26 1-1 55h-29v-150z" fill="#040303"/>
<path transform="translate(824,448)" d="m0 0h9l2 4 10 49 5 21 1 2 4-9 12-44 6-21 1-2h24l3 7 16 55 4 12 2 2 13-63 3-12 1-1h24l-1 10-13 56-11 44-3 4h-26l-3-5-8-26-11-40-3-6-12 44-7 25-3 7-2 1h-26l-3-7-9-36-12-51-4-16-1-3z" fill="#050403"/>
<path transform="translate(874,150)" d="m0 0h28l16 4 12 6 9 7 6 8 4 7-1 4-10 7-11 6-4-2-7-11-7-5-9-3-7-1h-9l-10 2-10 5-8 9-5 11-3 16v19l3 17 4 10 7 9 8 5 6 2 7 1 17-1 11-4 7-6 9-18 6 2 16 9 2 2-1 6-7 13-9 10-9 7-12 5-17 3h-11l-16-2-15-5-12-7-10-10-8-13-5-13-3-12-1-7v-21l2-14 5-16 6-12 8-10 11-9 12-6z" fill="#050303"/>
<path transform="translate(996,142)" d="m0 0h6l1 64 8-7 9-7 13-4h16l10 3 6 4 7 7 5 10 2 8v88l-1 1h-28l-1-4v-54l-1-25-3-6-5-4-6-2h-10l-8 3-6 5-5 9-1 4-2 74h-29v-166z" fill="#050303"/>
<path transform="translate(1147,188)" d="m0 0h22l12 3 9 6 6 7 4 8 2 13v54l2 5 9 1 3 2 1 14-2 6-8 3h-10l-10-3-6-5-5-8v-2l-5 4-6 7-10 6-8 3h-12l-13-5-10-9-6-9-2-9v-11l3-10 9-10 14-7 36-9 5-3 1-2v-7l-3-5-8-3-15 1-11 4-9 6-3 3-6-1-7-11-2-3 1-6 11-8 14-7z" fill="#050403"/>
<path transform="translate(488,405)" d="m0 0 3 4-1 16-5 32-5 27-2 3-3 1-8 12-7 10-12 16-1 5-33 2h-21l-17-1-3-1-12-20-7-11-10-18-4-10-5-20 1-4 6-3 9 1 10 6 9 6 15 6 13 3h26l13-4 11-6 10-7 13-13 7-11 1-2h2l1-4 4-8 1-4z" fill="#C1724F"/>
<path transform="translate(1866,403)" d="m0 0h28l1 60 8-7 11-7 7-2 12-1 13 2 9 5 7 8 5 12 1 6v83h-28l-1-72-1-9-4-6-7-3h-14l-7 3-7 8-3 8-1 19-1 52h-27l-1-1z" fill="#040303"/>
<path transform="translate(1680,446)" d="m0 0h10l14 2 9 4 8 7 5 9 2 9 1 59 1 2 11 2 1 1v17l-3 4-4 1h-12l-10-3-7-8-3-5-4 2-7 8-8 5-10 3-13-1-12-5-8-7-5-10-1-3v-18l4-9 6-7 12-6 14-4 20-5 7-3 1-2v-8l-4-5-3-1h-16l-12 4-10 6-4 3-4-2-6-10-3-6 5-5 14-9 15-5z" fill="#050303"/>
<path transform="translate(1496,446)" d="m0 0 18 1 12 4 10 9 4 7 2 8 1 61 1 2 12 2 1 7v10l-5 5-4 1h-10l-11-3-7-8-2-6-5 4-6 7-11 6-4 1h-15l-12-4-9-7-6-12-1-4v-14l4-11 5-6 10-6 21-6 17-4 7-4 1-7-3-6-4-2h-17l-12 4-11 7-5 2-10-16 1-5 16-10 9-4 8-2z" fill="#050303"/>
<path transform="translate(1135,403)" d="m0 0h28l1 58 1 2 10-10 10-5 4-1h21l11 4 7 6 6 12 2 8v84l-1 1h-26l-1-1-1-78-3-6-8-5h-15l-6 3-3 1-2 4-5 9-1 6-1 63-2 4h-25l-1-1-1-157z" fill="#040303"/>
<path transform="translate(461,201)" d="m0 0 12 3 6 4 5 9v2l5-1 7 7 1 27-3 15 1 5 6 7 2 9v9h-1l-2-9-1-4h-2l-5-5-5-8-1-4v-10l3-11v-18l-1-2-10-1-7-10-4-2h-14l-32 8-9 5-2 6-5 1-4-1h-7l-1 9 3 8 2 4v3l-6 2-1 3-7 3-5 9v5l2 6v4l9 1 6 3 10 2h17l11 2 31 1 13 2 3 3h-15v2l2 1-9 3-2 11h-6v-2l-5 2-18-2v-2l-7-2 1-7 8-3 8 5 3-1-4-2 2-3 12-1h11l-5-1h-25l-11 1h-11l-7 1v2l-4 1-9-2-3-3v-2l-8-1-8-3-21-3h-9l-12 2-8 4h-7l-3-3-2-6 1-8 8-26v-22l2-9 5-9 8-6h9l9 3 20 2 25 4 8 3 12-6 12-3 9-3 16-3z" fill="#F2A980"/>
<path transform="translate(224,534)" d="m0 0h28l111 1 11 1h73l155-1 5 2 2 5-7-4h-18l-11 3-26 4-22 3-53 7-19 2h-67l-19-1-32-4-30-3-15-1-32-1h-21l-29 1-28 4-13 3h-7l-11-15v-2l3 1 1 2h2v-2l2-1-2-2 1-1z" fill="#D4D2CE"/>
<path transform="translate(1793,446)" d="m0 0 17 1 12 3 11 6 5 5-1 5-13 13-11-6-12-3h-10l-7 3-2 3v7l4 4 8 3 28 7 9 5 5 5 4 6 2 6v15l-3 10-6 8-12 8-12 4-5 1h-13l-16-4-16-8-7-6-1-4 3-5 9-11 4-1 13 10 6 3 7 1h10l9-4 2-4v-7l-8-5-28-8-8-4-10-9-4-7-1-4v-14l4-10 5-7 9-6 11-4z" fill="#050303"/>
<path transform="translate(1268,162)" d="m0 0h4l-1 28h34v22l-1 2-32 1v35l1 25 3 6v2h16l11-2 6 18-1 4-5 4-15 4h-15l-12-4-10-7-7-12-2-10-1-64h-13l-4-1v-22l1-1 16-1 1-22z" fill="#050303"/>
<path transform="translate(1078,421)" d="m0 0h1v27h32v23l-31 1v55l3 10h15l12-1 3 10 1 9-5 4-15 7h-12l-14-7-8-6-6-9-3-11-1-61-16-1-1-6 1-17h16l1-22z" fill="#040303"/>
<path transform="translate(400,165)" d="m0 0 9 1v7l2 11h5l4-10 3 1 5 10 6 6h5l3-3 5 1 4 3 5-1 5-5h7l3-1 1-4h3l2 4 4 2 3 9h7l4 1 10-2 4 1h4l2-7-2-1-1-3-2-1v-2l2-1v-2h-5v-4l-4-4 1-3h4v2l3-1 2 4-4-1 1 2 3 1v4l1-2 3 1 4 6 7 8 5 5 5 6v5l-6-3-4-8-8-8-3-1 3 6 1 3 7 2-2 1 8 15 2 12-1 7-1 1v15l-4 18-5 13-5 8-6 3h-2l-1 3h-2v15l-7 1v-23l-3-11-6-6 1-9 2-10-1-27-5-5-4-1h-2l-3-5v-9l-3-3-4 1-9-3-5-1-9 4-6-2-10 2-13 1-4 2-6-1-3-3-2-11v-7l-3 1-3-3-5-12 1-4z" fill="#222020"/>
<path transform="translate(1575,403)" d="m0 0h28l1 129 2 6 12 1 2 5 1 16-4 4-4 1h-9l-12-3-9-6-6-8-2-7-1-22v-85z" fill="#060403"/>
<path transform="translate(398,321)" d="m0 0h5l7 10 4 7 3 3 4 10 4 8 5 2v2h11v1h-10v2h-3v-2h-5l-6-7-4-11-1-6-5-6-3-6-4 1v6l-1 6-3 12-2 11v14l6-1v4l5-2 9-3 5-2 9-3 5-1 4 4 10 3 16 1 8 1 14-1 7-7 2-3 1-6 4-2-2 12-3 9-2 9-4 1-1 6-8 4-5 4-5 5-8 13-2 7-5 1h-7l-3 9-5 4-1 2h-3v2h-4v2l-10 2-11-1-6-5-10-1-2 3h-5l-1-6-5-1-3 5-1-2 2-6 5-2 1-2 7 1 5-2 11-2 3-3h2v-2h5v-4h-2l-1-5-10 3-3-2v2l-4-1-2-2-5-2-3-2v-2h10l13-3h7l4 3 5 1v2l6 2 8 4 2 5 6 2 3-2v-5l-2-6-1-6h-2l-2-9h-2l-4-4-14-1-14-4-3-2 1-4 4-3 4-2-12 5h-9l-1-3h-2v-2l-4-2-2-2-2-7 2-2h2l3-12 2-13v-8l3-11z" fill="#E4A078"/>
<path transform="translate(461,201)" d="m0 0 12 3 6 4 5 9v2l5-1 7 7 1 27-3 15 1 5 6 7 2 9v9h-1l-2-9-3-9-2-3-3-1-1-4v-9l1-7v-25l-3-7-1-1-7-1-8-10-10-3-4-1-7 3-20 5-19 6-7 4h-10l-18-1-2 1h-10l-6-1-2 7-1 5-3 6v5l3 1 2 5-1 1-2 15-2 4-8 1v2l-10 3-1 2-1 9h7v1l-12 2-8 4h-7l-3-3-2-6 1-8 8-26v-22l2-9 5-9 8-6h9l9 3 20 2 25 4 8 3 12-6 12-3 9-3 16-3z" fill="#AB6841"/>
<path transform="translate(468,440)" d="m0 0v3l-12 12-13 10h4l6-2-3 9-8 4-11 8-8 6-1 2-4 2-1 3-12 6-7 2-11-1h-8l-7 2-6 4-1 5h-2l-9-15-10-18-4-10-5-20 1-4 6-3 9 1 10 6 9 6 15 6 13 3h26l13-4 11-6 10-7z" fill="#8C4A2C"/>
<path transform="translate(322,401)" d="m0 0 2 3 6 19 9 42 5 15 9 17 3 6 1 6 4 12 4 10h-5v-2l-5-5-7-11-8-10-4-7-3-1 1 11v6l9 15 5 1-1 3h-18l-4-10-4-9v-3l-8-1-4-6-1-3-1 3-1 7 1 4v6l-2-3-1-3v-8l-4-1-3 9-2 17-1 1h-6l-1-4 3-12-1-5-9 2-2 12-3 1-1-1v-20l3-18 4-10 3-2h6l-1 9-3 10-1 8 3-1 8-24 2-2h14l1 3 4 2 2 2 5 18v2l2-1 1-8-2-9v-3l-2-1-5-21-1-14 1-23 2-16z" fill="#C7C4C0"/>
<path transform="translate(432,299)" d="m0 0h28l3 2-1 1h-16l-7 1-1 2 4 2-4 2-9-5-7 2v7l6 2v2l18 1 5-1v2h6v-8l2-4 4-2h5l9 3 5 3 4 5 5 15h-4l-2 4-3 15-5 9-4 4-10 3-1 1h-10l-11-3-11-1-5-9-6-15-5-12-3-14 4-9 11-4z" fill="#050303"/>
<path transform="translate(509,307)" d="m0 0 2 1-2 9-1 23-1 8-2 1-4 20-7 20-4 9-6 9-7 10h-2l-2 5-15 16-5 3-2 2-7 3-6 4-14 5-10 2-12 1-17-3-12-4-10-6-2-4v-3h-2v-3h-3l-2-7-1-5-3-7 3-8 7-5 2 1v2l4 3 4 1h8l3-2 10-1h13l13-2 10 1 10 2 8 5 3 1v-6l2 2 2 9 1 1v5l-5 3h-2v-2l-4-1-2-5-7-3-6-3-2-2-4-1-3-2h-7l-14 3-9-1v2l4 2 5 2 5 3v-2l4 1 9-2 1 5h2v4l-3 1-2-1v2h-2l-1 3-5 2-11 2-4 1-5-2-1 3-5 1-1 7 3-5 5 2 2 5 4-1 3-2 9 1 6 5 14 1 7-1v-2h4v-2h3l1-3 5-5 3-7 12-1v-6l7-10 6-9 6-4 5-3 4-1 1-6 4-1 2-13 3-8 3-16 1-23h-7l3-11 4-4 4 3 2-9z" fill="#DD8F68"/>
<path transform="translate(343,147)" d="m0 0h2l-1 7 4 1v3l10-1v3h3l2 2-2 10 2-2 2-6 5-3 3-5h2l1 6 3 1 2 13 1-2 2-6 4-1 2 2v9l-1 1v5l3 4v2l5 1 9 6 1 5-4 4-5 1-3 2h-3v5h-8l-3-3-8 1-13-1h-6l-3-3-5-6-1-5-10-3-1-1-12-1-2-5v-20l1-5-1-4 4-1 5-5 3-4 1 4-2 4h-3l1 8 1 5h1v-6h2v3l6-5 1-8z" fill="#0E1418"/>
<path transform="translate(985,448)" d="m0 0h28v97l-1 16-1 1h-26z" fill="#060403"/>
<path transform="translate(304,285)" d="m0 0 2 4v18h2v10l2 1 1 8 1 14 3 17 2 5 3 17 5 13 3 10 6 13v2h2l4 6 4 3v2l4 1 16 16 11 6 14 4 14 2 17-2 13-4 10-5 4-3 5-2 3-3 5-3 13-14 2-4 2-2 6-8 7-10 9-25 4-16 2-11h1v8l-4 18-10 32-2 9h-1l-1-4v5l-4 4-3 7h-2l-2 6-8 10-13 13-16 10-11 4-5 1h-26l-16-4-16-7-11-8-8-3-7 1-4 3-3-7-5-24-11-32-3-7-5-22-4-30-1-12z" fill="#060505"/>
<path transform="translate(388,115)" d="m0 0 2 1 1 9-3 3-1-5v6l1 7h-3l-5 2v5l4-2 2 5-6 7h-3l-1-2-2 5-6 8h-3l-1 7-3 1 1-11-2 1-3-2 1-3-10 2-2-1 1-2-4-2 2-7h-2l-2 6-1 8-4 2-1 3-3 1 1-4h-2l1 7-4-2v-12l3-1 1-6-5 8-3 1-2 3v-3 4l-1 10v17l1 3 3-1 1 7-7 4-1 2h-5l-2-2v-12h-2l-1 3-3 1v-9l-2-7-2 7-2 5-6 1 2-5 6-11 2-10 2-5 5-8 3-5 5-2 1 2 4-6 5-2 2-3h2l2 3 4-1 1 6-1 2 7-10h3l1-4h2v-5l2 1 5-5 1 3h-2l2 2 2-3 2 4 1-6 4-2h5l4 1 2 5 2 1-2-8 1-2-4 1 1-3 6 1 1 2z" fill="#312521"/>
<path transform="translate(501,290)" d="m0 0h1l1 17-1 4 5-2-2 9-5-2-2 3-3 9-1 2h7v23l-1 7-4 2-2 7-7 8-2 2-14 1-11-1-18-2-6-3-3-3-5 1-9 3-11 4-4 2h-4v-4l-6 1-1-6v-8l4-20 1-4 1-11 2-2 4 1 5 9 4 5 1 8 5 10 3 3 5 1v2h3v-2h13l8 2h10l7-3 5-2 4-5 4-9 2-12 3-4h4l-4-9-1-5 2 1v2l5-2-1-7h5l3-1z" fill="#FCBE96"/>
<path transform="translate(303,175)" d="m0 0h1l1 9 1 2v7l3-3h2l1 4v8l1 1h7l-1 8 3 3-1 9-2 9v22l-5 16-4 13 1 9 1 4 5 1 1 5-4 2-1 3-3 4h-2v-4h-2l-1-22h-2l-3-13-9-17-2-9-1-14-2-9v-8l4-19 2-5 6-2 3-5 1-6z" fill="#050404"/>
<path transform="translate(1352,435)" d="m0 0h24l14 2 7 6 3 6 1 5v11l-3 8-5 5-7 3-21 2h-8l-6-2v-45z" fill="#FAF9F9"/>
<path transform="translate(400,165)" d="m0 0 9 1v7l2 11h5l4-10 3 1 5 10 6 6h5l3-3 5 1 4 3 5-1 5-5h7l3-1 1-4h3l2 4 4 2 3 9h7l4 1 10-2 4 1 6 1 1 5-2 2-2 5 1 7-6 4-1 3-9 1-8-5h-5l-3-5v-9l-3-3-4 1-9-3-5-1-9 4-6-2-10 2-13 1-4 2-6-1-3-3-2-11v-7l-3 1-3-3-5-12 1-4z" fill="#0F1519"/>
<path transform="translate(398,321)" d="m0 0h5l7 10 4 7 3 3 4 10 4 8 5 2v2h11v1h-10v2h-3v-2h-5l-6-7-4-11-1-6-5-6-3-6-4 1v6l-1 6-3 12-2 11v14l6-1v4l5-2 9-3 5-2 9-3 5-1 4 4 10 3 16 1 8 1 14-1 7-7 2-3 1-6 4-2-2 12-5 10-5 5-4 2-4 5-9 4-5 6-5 10-5 1-3-3 1-3-2-1 3-7h2l1-5 1-6-7-1-2 3h-2l-1 3-14-2h-10l-11-3-3-2 1-4 4-3 4-2-12 5h-9l-1-3h-2v-2l-4-2-2-2-2-7 2-2h2l3-12 2-13v-8l3-11z" fill="#F3A980"/>
<path transform="translate(312,329)" d="m0 0h5l1 9 1 5 1 7-1 4 3 3v3h2l3 4v3l6-1 5-4 2 1 1-3h28l3 1 4 6h-2l-2 5v11l-16 4-2 3h-4l-2 4-6 2-2 3 1 5 4 11v3h2l4 7-1 2-3-2-1 2-5-2-5-6v-2h-2l-8-17-5-16-2-5-4-20-3-12z" fill="#CA865C"/>
<path transform="translate(398,108)" d="m0 0h13l5 1-4 2 7 1 4 1v2h5l1-2-2-1 8 1 5 2 5-1 10 5 11 4 9 3v2l5 1 6 4 7 6 8 7-3 1-5-5-5-1v-2h-2v2l-3-1v-2h2v-2l-3 1-3-4-2-1-1 5h-2l-3-3-1-3-2-1 1 7-3 4-2-7-6 2-1 5 5 1 1 4-4 6-1-4 1-2-3 3-4-1-6-4-2 10-3-1-1-6-3-1v-2l-4 1 1-8h-2l-1 5-3-3-3-1v-6l-4 7h-2l-1 3-1-2v-7l2-3h2v-6l-2-1-1-7 1-2h-2v7h-2l-1 3h-1l-1-7-4-2-1 3v-2h-4l1 10-5 3 1-10h-2v-3h-6l2 5-2 5v10l4-1h3l1 5-4 1-3 4-1-1-1 3-2-1-2-10-1-14 2 1 1 4 1-6-1-5-4 1-1 4-1-4h-6l-1 2 4-1 1 10-4-2-1-3-9-1-3 1v6l-2 1-1-4-3 3-1-3h2l-1-2-4 2-1 3-2-3 2-4h7l1-3 4 2-1-3 9-4 7-2 2-2 6 1 6-1z" fill="#C5C2BE"/>
<path transform="translate(584,537)" d="m0 0h18l6 7h-3l-5-3-18 2-9 3-44 6-17 2h-10l-2-1v2l-6-1v2l-8 1-5 1-1 1h-7l-2 1-15 1h-30l-34-2-24-1-44-5-28-3h-55l-8 1v1l-24 2-4 2-23 6-1 1v2l-5 4-5-1-10-12v-2l9-1 23-4 15-2 29-1h24l29 1 22 2 30 3 25 3 25 1h61l35-4 59-8 28-4z" fill="#CACFC0"/>
<path transform="translate(456,484)" d="m0 0 2 1 2 6 3 3 1 4 1 5-10 14-7 9-1 5-33 2h-21l-17-1v-1h10l1-5 10-4 7-5 13-5 9-5 4-2 3-3 10-7h2v-2z" fill="#E3A47E"/>
<path transform="translate(360,403)" d="m0 0 2 1v2l4 3 4 1h8l3-2 10-1h13l13-2 10 1 10 2 8 5 3 1v-6l2 2 2 9 1 1v5l-5 3h-2v-2l-4-1-2-5-7-3-6-3-2-2-4-1-3-2h-7l-14 3-9-1v2l4 2 5 2 5 3v-2l4 1 9-2 1 5h2v4l-3 1-2-1v2h-2l-1 3-5 2h-13l-10-3-2-1v2h-4l-4-4-1 2-5-1-1-2-4-1 2 3 4 5 2 1-2 6 4 1 1-2 1 2-2 5 2 4-6-2-4-3-2-4v-3h-2v-3h-3l-2-7-1-5-3-7 3-8z" fill="#C1724E"/>
<path transform="translate(284,474)" d="m0 0h6l-1 9-3 10-1 8 3-1 8-24 2-2h14l1 3 4 2 2 2 6 21 2 1 2 14 3 8 1 5-4 1-4-10-4-9v-3l-8-1-4-6-1-3-1 3-1 7 1 4v6l-2-3-1-3v-8l-4-1-3 9-2 17-1 1h-6l-1-4 3-12-1-5-9 2-2 12-3 1-1-1v-20l3-18 4-10z" fill="#E8C7B2"/>
<path transform="translate(461,201)" d="m0 0 12 3 6 4 5 9v2l5-1 7 7 1 27-3 15 1 5 6 7 2 9v9h-1l-2-9-3-9-2-3-3-1v-9l2-12v-20l-2-9-3-4-7-2-4-5-2-4-6-3-7-2-6 1-8 3-19 5-19 6-7 4-8-2-2-1-24-2-5-2h-7l-7 1-7-1-3 1v2h-2l-1 4-5 5h-6l-2 3v9l2 10 1 9-2 3-3 13h-2v2h-2l2 10 4 1 1 3 3 1-8 4h-7l-3-3-2-6 1-8 8-26v-22l2-9 5-9 8-6h9l9 3 20 2 25 4 8 3 12-6 12-3 9-3 16-3z" fill="#8C4A2C"/>
<path transform="translate(377,371)" d="m0 0 4 2 2 6 5 1 4 5 12 1 1 3h2l1 4-1 1-16 1-1 6h15l4-2 8 3 12-3 3-2h9l4 2 3 9v6l-5-1-9-5-12-2-18 2h-18l-7 2-1 1h-8l-7-3-3-3-4 2-5 2v2l-5 2v-7l5-11 4-5 5-3 13-1 5-3 1-2-1-2-2 1-2-6 3-1z" fill="#8C4A2C"/>
<path transform="translate(255,535)" d="m0 0h108l11 1h182v1l-48 1-17 3-23 2-18 2h-77l-19-3-4-1-27-1-22-2-16-1-30-1z" fill="#CBD0C0"/>
<path transform="translate(472,444)" d="m0 0h6l-1 7-3 4-3 6h-2l-1 3-16 12-6 2-2 4-3 4-3 6-6 5-3 3-9 6-10 4-4 2-5 3-9 3h-4l-7-4-7-2v2l-5 4 1 6-3-3-3-6 1-5 8-6 12-1h8l7 1 13-6 4-1 1-4 4-1 1-3 9-7 15-10h3l1-7-4 1-6 1 4-5 13-10 7-6-1 5h3v-2h2l2-4z" fill="#AC6942"/>
<path transform="translate(322,297)" d="m0 0h29l8 3-4 1-3-1 4 7 2 1v2l6-2h13l1-4 2-1 5 3-1 7-3 2h-26l-6-2-2-2 1-5-1-3-8-3h-7l-10 2-1 18 2 16 3 10 5 5 7 5 5 2h27l7-3 10-17 3-7h1v9l-4 13h2v6l-3-3-1 1h-7l-5 7-1-3h-31l-1 2h-3l-4 4-4 1-2-1-3-5v-2h-2v-3l-3-1-1-5 1-1-1-7-1-5-1-8-4-1v11h-1l-1-14-1-7-2-2v-7l3 1 1-5h2l7-8z" fill="#B76C48"/>
<path transform="translate(343,147)" d="m0 0h2l-1 7 4 1v3l10-1 1 8v13l4 2 3 8h-4l-2-2h-4l-3 7h-2l-3-3-10-3h-2l-2 4-10 1h-2l-2-5v-20l1-5-1-4 4-1 5-5 3-4 1 4-2 4h-3l1 8 1 5h1v-6h2v3l6-5 1-8z" fill="#030202"/>
<path transform="translate(330,136)" d="m0 0h2l2 3 4-1 1 6-4 5-2 3-1-3-5 8-3 1-2 3v-3 4l-1 10v17l1 3 3-1 1 7-7 4-1 2h-5l-2-2v-12h-2l-1 3-3 1v-9l-2-7-2 7-2 5-6 1 2-5 6-11 2-10 2-5 5-8 3-5 5-2 1 2 4-6 5-2z" fill="#2D2421"/>
<path transform="translate(418,218)" d="m0 0h5l-14 7-3 2-14 1-6 3-5 2-12-2-4 4-1 7 6 12-1 5-3 7-2 13-5 3-1 4 2 3-1 1 3 2-28-2v-9l2-3 10-2v-2l8-2 2-8 1-10v-4l-3-3-1-6 4-8 1-8 2-2 6 1h10l2-1 28 1z" fill="#CC885E"/>
<path transform="translate(1172,250)" d="m0 0h2l-1 21-4 9-7 6-10 3-10-1-5-4-3-6-1-8 3-6 6-5 28-8z" fill="#FAF9F8"/>
<path transform="translate(489,425)" d="m0 0h1l1 5 3 1 4 18v16l-2 18 1 6-2 4-4 7-2 11-4 6h-4l-2-10-3-5-1-7h-2l1-7 4-2 3-11 7-43z" fill="#C6C3BF"/>
<path transform="translate(1695,507)" d="m0 0h6v14l-2 9-7 9-9 4h-8l-7-2-4-5-1-2v-12l2-4 10-5 18-5z" fill="#F9F8F8"/>
<path transform="translate(1509,507)" d="m0 0h6v18l-5 10-7 6-6 2h-8l-7-3-4-4-1-3v-10l3-5 4-3 13-4z" fill="#F9F8F8"/>
<path transform="translate(417,114)" d="m0 0h2v9l3 1-1 6h-2l-1 3v7l3-2 4-8 1 4-2 7-2 3 1 6 4-3 3 1 1 6h2l1 10h-2l-1 5-2-1v-5l-3-1-3-9-3-1v2h-2l-1 2 1-9 1-2-3-2-1-1v6l-5 2-1 6-3-1v-15l-6 1-3 11-2 1v-5l-4-1 1-4h2l3-4 3 1-1-5h-3l-1 2h-3l-1-3v-8l2-6-2-5 7 1v3h2l1 6-1 3 3-2-1-8 1-2 8-1 2 2 1 6 1-2h2z" fill="#754129"/>
<path transform="translate(478,309)" d="m0 0 4 2 4 5 5 15h-4l-2 4-2 2-4 1v4h-2v6l-2 3 2 2-2 3h-2l-4-15-10-5v2l-12 3h-8l-13-3v-4l11-2 16-1 3-2 3-9 7-1 3-2 13-1-2-4z" fill="#1D1E1F"/>
<path transform="translate(993,402)" d="m0 0h13l6 4 4 8v10l-4 6-8 4-7 1-9-3-5-6-2-6 1-8 4-6z" fill="#080504"/>
<path transform="translate(511,238)" d="m0 0 4 4 2 1v3h2l-1 6-4 4 5-1 2 4-1 3-5 1v3h-2v10l-1 2v7l4 5-3 1-2 4h-2v15l-7 1v-23l-3-11-4-4-1-5 3-3 2-1v-12l3-1 5-12z" fill="#0F1519"/>
<path transform="translate(468,130)" d="m0 0 3 1v3l3 1v2h2v-5h4l2 4h3v2l-4 1v7h-2l-1 5h-2v2l-2 1-1 4h-2l3 9v5l-2 1v-2l-4-1v-2h-2l-1 4-1-3v-8h-3l-1 2 1-6-4 1-1 5h-2l-3 3-2 5-2-1-1-12-2 2v-4l-3-1 1-2 2 1v-6l2-4 5 2 5 3 1-3h2v5l3-5v-4l-4 1-2-2 1-5 2-2 5-1 2 6 2-2z" fill="#8E4E30"/>
<path transform="translate(387,408)" d="m0 0h24v1l-14 3-9-1v2l4 2 5 2 5 3v-2l4 1 9-2 1 5h2v4l-3 1-2-1v2h-2l-1 3-5 2h-13l-10-3-2-1v2h-4l-4-4-1 2-5-1-1-2-4-1 2 3 4 5 2 1-2 6 4 1 1-2 1 2-2 5 2 4-6-2-4-3-2-4v-3h-2v-3h-3l-2-7-1-5-3-7 1-2h2l3 3 1-3 9 2 3 2v2l5-1v2h2v2h4v2l9 3 3 2h8l5-2v-3l-10-4-6-1-7-5v-5z" fill="#CB875D"/>
<path transform="translate(456,484)" d="m0 0 2 1 2 6 3 3 1 4 1 5-4 6h-3l-4-5-6 1-10 5-7 4-8 3-5 3-3 2-7 2-5 3v2l6 1v1h-23l1-5 10-4 7-5 13-5 9-5 4-2 3-3 10-7h2v-2z" fill="#CC885E"/>
<path transform="translate(388,115)" d="m0 0 2 1 1 9-3 3-1-5v6l1 7h-3l-5 2v5l4-2 2 5-6 7h-3l-1-2v2l-4 2-1 3-4 1 2-5 4-7v-6l-3-3-1-2-6-2v6l-2 1-2-3 1 4 3 3 1 4-2 3-1-5h-3v-3l-3-1 1-3-5 1-2-4h-3v2l-2-1 1-2h3l1-4h2v-5l2 1 5-5 1 3h-2l2 2 2-3 2 4 1-6 4-2h5l4 1 2 5 2 1-2-8 1-2-4 1 1-3 6 1 1 2z" fill="#4D342A"/>
<path transform="translate(427,420)" d="m0 0 10 4v7l4 4 1 7-4 4h-3v2h-12l-10 2-1-2-5-2-7-4h-4v-2l-2-1v-2l7-3 10-3 3-2 8-1z" fill="#F3A980"/>
<path transform="translate(237,546)" d="m0 0h24l29 1 6 1-4 2h-51l-8 1v1l-24 2-4 2-23 6-1 1v2l-5 4-5-1-10-12v-2l9-1 23-4 15-2z" fill="#CACFC0"/>
<path transform="translate(502,195)" d="m0 0 7 1 6 1 1 5-2 2-2 5 1 7-6 4-1 3-9 1-8-5h-5l-3-5 1-14 6-4 7 1z" fill="#0F1519"/>
<path transform="translate(431,298)" d="m0 0h40l9 2 1 2h-15v2l2 1-9 3-2 11h-6v-2l-5 2-18-2v-2l-7-2 1-7 8-3 8 5 3-1-4-2 2-3 12-1h11l-5-1h-31v-1z" fill="#382923"/>
<path transform="translate(518,479)" d="m0 0h15l2 1-1 7-7 6-4 5h-2v2l-6 3-6 2-6-1-3-5-1-3v-12l10-3z" fill="#E8C6B2"/>
<path transform="translate(359,219)" d="m0 0h6v2l8 1 3-1 17 1 3 2h-18l-2 1h-10l-6-1-2 7-1 5-3 6v5l3 1 2 5-1 1-2 15-2 4-8 1v2l-10 3-1 2-1 9h7v1h-10l-2-7v-6l5-5 8-3h8l1-5 1-13-2-5-3-6v-14l2-4z" fill="#C1714E"/>
<path transform="translate(398,321)" d="m0 0h5l7 10 4 7 3 3 4 10 4 8 5 2v2h11v1h-10v2h-3v-2h-5l-6-7-4-11-1-6-5-6-3-6-4 1v6l-1 6-3 12-2 11v14l6-1v4l5-2 9-3 5-1v2h2v2l-3 1h-4l-9 4h-9l-1-3h-2v-2l-4-2-2-2-2-7 2-2h2l3-12 2-13v-8l3-11z" fill="#F0A77E"/>
<path transform="translate(542,384)" d="m0 0 10 3 31 12 25 8 24 7 19 6 8 4 10 9 2 4 5 5 4 8 1 5-7-6-8-14-7-6-6-2-9-5-3-1-16-2-9-2h-3l-17-9-43-18-11-4z" fill="#C6C3BF"/>
<path transform="translate(615,416)" d="m0 0 10 2 16 2 9 4 4 3 6 2 8 7 6 12h-3l-33-16-15-8-7-5z" fill="#CACDC0"/>
<path transform="translate(598,596)" d="m0 0h3l-2 4-19 14-21 13-20 11-24 10-22 8-15 4v-2l33-11 14-6 3-1v-2l6-4h2v-2l9-6h3v-2l12-5 9-7 11-7 5-2 8-3z" fill="#CACFC0"/>
<path transform="translate(418,218)" d="m0 0h5l-14 7-3 2-14 1-6 3-5 2-12-2-4 4-1 7 6 12-1 5-3 7-2 13-5 3-1 4 2 3-1 1 3 2-26-2 3-7 9-1 12-7 1-1v-11l4-5-1-8-3-4-1-6 2-10 3-3h14l1-2h25l10-6z" fill="#DC8D66"/>
<path transform="translate(459,206)" d="m0 0 4 1 10 3 5 6 3 4 7 1 4 5 1 4v25l-1 7v13l4 1 3 5v3h-2l-5-5-5-8-1-4v-10l3-11v-18l-1-2-10-1-7-10-4-2h-14l-16 4-6 1h-8l3-2 13-4 16-4z" fill="#EFA77E"/>
<path transform="translate(345,360)" d="m0 0h24v2h2l-1 4-4 1 3 5-1 4h-2v2l-6 3-1 1-11-1-4-4-1-4-3-2 2-9h3z" fill="#DD8F68"/>
<path transform="translate(488,405)" d="m0 0 3 4-1 16-5 32-5 27-2 3-3 1-1 2h-2l1-4h-2l1-4v-3l2-10 5-17 5-30 3-9v-6z" fill="#87492C"/>
<path transform="translate(325,192)" d="m0 0h9l8 3 4 2 1 7 4 2 1 4 7 1v1h-8l-9-3h-9l-8 6-3 7-1-4-1-5-2-4v-3l2-1v-2l-2-1 4-3 3-1z" fill="#1E1E1F"/>
<path transform="translate(409,119)" d="m0 0 3 1-2 10h3l1-3 2 1 2 12 3-2 4-8 1 4-2 7-2 3 1 6 4-3 3 1 1 6h2l1 10h-2l-1 5-2-1v-5l-3-1-3-9-3-1v2h-2l-1 2 1-9 1-2-3-2-1-1v6l-5 2-1 6-3-1v-27z" fill="#935436"/>
<path transform="translate(389,228)" d="m0 0 3 1-6 6h-9l-8 3-1 3 5 10 3 1 1 5-4 9-2 4v12l-5 8-1 2-6-1-1-4-1-3 5-5h2l1-13 4-8-1-6-5-10 1-7 5-5 14 2z" fill="#E4A078"/>
<path transform="translate(382,375)" d="m0 0 4 1 3 2v2l3 1 1 3h8l11-4 6-2-1 3-7 3-1 4 4 2 12 3 14 1 4 4h-11l-9 4-7 1-8-3-3 2h-11l-4-1 1-6 2-1 14-1v-4h-2l-1-2-12-1-5-6-4-1z" fill="#C17550"/>
<path transform="translate(374,367)" d="m0 0 4 2 2 4h-3l-2 1 2 4 3 3-4 5-3 1-13 1-5 3-4 5-4 10-1 7 5-2v-2l2 1-2 7 4 7 1 11h3v3h2l2 6-7-6-8-7v-2l-4-2h2l1-3 3 1-3-5v-2h-2l-6-16 1-5 4-3 4-1 2-3h4l2-4 12-2 1-2 3 1-1-6 1-7z" fill="#BE704C"/>
<path transform="translate(509,307)" d="m0 0 2 1-2 9-1 23-1 8-2 1-4 20-7 20-4 9-4 6-1-3h2l3-9 2-4 3-14 2-5 3-16 1-23h-7l3-11 4-4 4 3 2-9z" fill="#935132"/>
<path transform="translate(371,294)" d="m0 0 6 1 10 3 3 4 11 2h2v-2l7-2h11l2 2-8 3-3 9 4 16 3 6-1 3-4-7-1-9h-2l-3-3-5-3-5 1-5 12h-2l1-8 3-6 2-6-5-2-9-8-12-5z" fill="#AC6341"/>
<path transform="translate(329,297)" d="m0 0h22l8 3-4 1-3-1 4 7 2 1v2l6-2h13l1-4 2-1 5 3-1 7-3 2h-26l-6-2-2-2 1-5-1-3-8-3-10-1z" fill="#533628"/>
<path transform="translate(304,285)" d="m0 0 2 4v18h2v10l2 1 1 8 1 14 3 17 2 5 2 12-2 4-1-1-2 3-5-22-4-30-1-12z" fill="#141415"/>
<path transform="translate(388,115)" d="m0 0 2 1 1 9-3 3-1-5v6l1 7h-3l-5 2v5l4-2 2 5-6 7h-3l-1-2v2l-4 2-1 3-4 1 2-5 4-7v-5h2l-2-5 2-2v3l3-3v-4l1-4 2 1-2-8 1-2-4 1 1-3 6 1 1 2z" fill="#7E462C"/>
<path transform="translate(472,318)" d="m0 0h5l4 2 1 2h2l2 4-1 2h-4v3l-9 1h-3v2h7l1 4-1 2h-6l-6-4-3-6-1-4 1-5h6v-2z" fill="#87482B"/>
<path transform="translate(455,499)" d="m0 0 6 2 1 3 2 1-3 4h-3l-4-5-6 1-10 5-7 4-8 3-5 3-3 2-7 2-5 3v2l6 1v1h-18v-4l10-5 6-2 11-6 7-3 5-3 18-6z" fill="#DF9069"/>
<path transform="translate(417,405)" d="m0 0 10 1 10 2 8 5 3 1v-6l2 2 2 9 1 1v5l-5 3h-2v-2l-4-1-2-5-7-3-6-3-2-2-4-1-3-2-5-1v-2z" fill="#DE8F68"/>
<path transform="translate(208,547)" d="m0 0h14l-3 2-25 5-16 6-3 8-4-2-8-7-2-5 9-1 23-4z" fill="#C6C3C0"/>
<path transform="translate(373,156)" d="m0 0h2l1 6 2 1 1 13 3 5v2l4 2 1 4-6 2-2-6-8-3-8-7 3-11 5-5z" fill="#030202"/>
<path transform="translate(380,191)" d="m0 0 1 2-3 10-4 4h-11l-9 2-2-3 1-6 3-4 7 1 1-4 5-1h8z" fill="#030202"/>
<path transform="translate(327,293)" d="m0 0h2v2l27 1 21 4 6 3-1 2-3-1-2 4-9 1-10 1v-2l-4-2-2-6h4l-5-2h-29l-5 2v-3z" fill="#482F24"/>
<path transform="translate(522,297)" d="m0 0h2v8l-6 15h-2l-2 5-2 6h-2l-2 3v-17l2-9-1-5 3 1 1-4z" fill="#F2A87F"/>
<path transform="translate(388,386)" d="m0 0 6 2-1 4-10 3h-12v2l-3 2-12 2-5 2 1-5 4-6 5-3h10z" fill="#070707"/>
<path transform="translate(429,376)" d="m0 0h6l3 9v2l-4 1v2l-4 2-16-2-4-3v-2l7-4z" fill="#FEC098"/>
<path transform="translate(490,390)" d="m0 0 1 2-4 9h-2l-1 4-5 5-6 9-4 2-1 4h-2v2l-7 3v-6l7-10 6-9 6-4 5-3 4-1 1-6z" fill="#DA8D65"/>
<path transform="translate(387,408)" d="m0 0h24v1l-14 3-9-1v2l4 2 5 2 5 3v-2l4 1 9-2 1 5h2v4l-3 1-2-1v2h-2l-1 3-5 2h-8l4-2h5v-2l4-4-1-2-12-1-8-2-7-5v-5z" fill="#DC8E67"/>
<path transform="translate(459,204)" d="m0 0 7 1 8 3 4 4 4 6 8 3 3 4 2 9v20l-3 17h-1v-9l1-7v-25l-3-7-1-1-7-1-8-10-10-3-4-1-7 3-20 5-19 6-7 4h-10v-1l10-2 10-5 21-6 19-5z" fill="#B76D48"/>
<path transform="translate(156,535)" d="m0 0h56v1l-19 1-26 6-6 2-5 1h-3l-4-6v-2l3 1 1 2h2v-2l2-1-2-2z" fill="#CBD0C0"/>
<path transform="translate(612,410)" d="m0 0 9 1 28 8 10 5 10 9 2 4 5 5 4 8 1 5-7-6-8-14-7-6-6-2-9-5-24-9-8-2z" fill="#84472B"/>
<path transform="translate(503,168)" d="m0 0h5v2l3-1 2 4-4-1 1 2 3 1v4l1-2 3 1 4 6 7 8 5 5 5 6v5l-6-3-4-8-8-8-3-1 3 7-3 2h-3l1-8-2-1-1-3-2-1v-2l2-1v-2h-5v-4l-4-4z" fill="#2E2421"/>
<path transform="translate(486,412)" d="m0 0 1 3-4 18-2 12-3 3v-4l-7 2-2 3h-2v2l-5 2 2-3 2-6 8-11 5-9h2l1-4z" fill="#BF704D"/>
<path transform="translate(502,195)" d="m0 0 7 1 6 1 1 5-3 3-6 2-1-1v-5l-6 3-10-1-3 2-3-1-1 2-1-1v-5l6-4 7 1z" fill="#030202"/>
<path transform="translate(327,503)" d="m0 0 2 1v2h4l2 8 8 13 5 1-1 3h-14l-2-6-3-8-1-9-1-3z" fill="#D0CDBD"/>
<path transform="translate(501,290)" d="m0 0h1l1 17-1 4 5-2-2 9-5-2-2 3-3 9-3 5-5 2-3 4 1-5 2-3h4l-4-9-1-5 2 1v2l5-2-1-7h5l3-1z" fill="#EEA67D"/>
<path transform="translate(484,404)" d="m0 0v3l-7 10h-2l-2 5-15 16-5 3-2 2-7 3-6 4-7 3-3-1 11-6 4-4 8-6 2-4 5-1 5-4h3v-2h2l1-5 4-1 2-5 7-9z" fill="#AB6741"/>
<path transform="translate(322,297)" d="m0 0h7l3 3-10 2-1 18 3 24-1-3-3-1-2-36-3 1-2 6v15l-2 5h-1v-10l-3-4v-7l3 1 1-5h2l7-8z" fill="#834529"/>
<path transform="translate(493,157)" d="m0 0 1 3h2l1 5h-3l1 3 5-1 1 4h3l4 5h-2l1 2 5 1 1 3h-3v2l4 2 1 6-3-1-1-2-5-2v-2l-3-1-3-3-1-5-7-8v-2l-3-1 1-6 2 1z" fill="#030202"/>
<path transform="translate(390,331)" d="m0 0h1v9l-4 13h2v6l-3-3-1 1h-7l-5 7-1-3h-26l-2-2 26-1 7-3 10-17z" fill="#AF6543"/>
<path transform="translate(343,147)" d="m0 0h2l-1 7 4 1v3h6l-2 6-3 3h-3l-1-2-5 3-2 5h-2l-1 3h-2l-1-5-1-2v-6h2v3l6-5 1-8z" fill="#1E1E1F"/>
<path transform="translate(503,211)" d="m0 0h5l2 4v3l-3 2-1 3-9 1-8-5h-5l-2-4v-3l8 2h2l5-1 5 2z" fill="#040303"/>
<path transform="translate(382,375)" d="m0 0 4 1 3 2v2l3 1 1 3h8l11-4 6-2-1 3-7 3-1 4 4 2 12 3 14 1 4 4-7-2-9 1-6 3-8-4-1-2 3-1-6-2-4-2-1-2-12-1-5-6-4-1z" fill="#D18A60"/>
<path transform="translate(505,345)" d="m0 0h1v8l-4 18-10 32-2 9h-1l-1-4v5l-3 2h-5-3l6-8 7-10 9-25 4-16z" fill="#232020"/>
<path transform="translate(406,409)" d="m0 0h10l-1 5-5 5-5 1-3-2v2l-4-1-2-2-5-2-3-2v-2h10z" fill="#E5A179"/>
<path transform="translate(347,491)" d="m0 0 4 2 5 10 1 6 4 12 4 10h-5v-2l-5-5-3-5v-2h2l-7-23z" fill="#CCD0C1"/>
<path transform="translate(491,226)" d="m0 0 2 4v25l-1 7v13l4 1 3 5v3h-2l-5-5-5-8-1-4v-10l2-4h2l1-7z" fill="#EDA47B"/>
<path transform="translate(329,297)" d="m0 0h22l8 3-4 1-3-1 5 9-1 5h-6l-3-3 1-5-1-3-8-3-10-1z" fill="#DBC7BC"/>
<path transform="translate(364,446)" d="m0 0 5 2 12 5 15 3 7 1h10v4h-20l-17-6-10-6z" fill="#1B1C1F"/>
<path transform="translate(461,303)" d="m0 0 4 1-3 3-3 1-2 11h-6v-2l-5 2-11-1-6-2-2-5h-2v-2l6 2 1 3 10 1 2 1h4v-2l3-1 1-6h3z" fill="#C6C3C0"/>
<path transform="translate(374,367)" d="m0 0 4 2 2 4h-3l-2 1 2 4 3 3-4 5-3 1-13 1-9 5-2-1 1-2h4l2-4 12-2 1-2 3 1-1-6 1-7z" fill="#C0714E"/>
<path transform="translate(502,153)" d="m0 0h2l7 10v2h2l1 3 2 2 5 8 5 9-1 2-7-7-3-4-2 1v-4l-4-1v-2h3l-2-2h-2l-4-9-1-2 2-1-4-1v-2l-2-1z" fill="#C6C3C0"/>
<path transform="translate(345,127)" d="m0 0 2 1-1 5-1 2h-2l-2 4-4-1-1 3v-2l-3 1-1-4h-2l-2 4-2 2h-3l-3 6-3-3 4-5h2l2-4 5-3v2h2v-2l7-4 5-1z" fill="#C6C3C0"/>
<path transform="translate(475,141)" d="m0 0 4 1 1 4-2 5h-2v2l-2 1-1 4h-2l3 9v5l-2 1-3-9h-3v-5l2-2v-5l3-4 1-5z" fill="#C6C3C0"/>
<path transform="translate(304,285)" d="m0 0 2 4v18h2v10l2 1 1 8-1-3h-2l1 4 1 20-1 5h-1l-4-36z" fill="#191B1E"/>
<path transform="translate(420,146)" d="m0 0h3v4l4-3 3 1 1 6h2l1 10h-2l-1 5-2-1v-5l-3-1-3-9-3-1v2h-2l-1 2v-6h2z" fill="#9F6E56"/>
<path transform="translate(468,130)" d="m0 0 3 1v3l3 1v2h2v-5h4l2 4h3v2l-4 1v7l-3-4-6 1v5l-3 3-1-7-3-2 1-3 2-2z" fill="#76412A"/>
<path transform="translate(320,346)" d="m0 0 2 3 3 5v4h2v2l6-2h7l4 2-3 1-1 2h-3l-4 4-4 1-2-1-3-5v-2h-2v-3l-3-1-1-5z" fill="#C0714E"/>
<path transform="translate(400,165)" d="m0 0 9 1v11l-4 5-5-2-4-10 1-4z" fill="#0F1519"/>
<path transform="translate(417,114)" d="m0 0h2v9l3 1-1 6h-2l-2 4h-1v-6h-2l-1 2h-3l1-10-2-1-1 4-4 1-2-3 1-5 8-1 2 2 1 6 1-2h2z" fill="#5A3626"/>
<path transform="translate(306,396)" d="m0 0 1 4-12 30-7 14-1-4 8-23 8-16z" fill="#E9C6B1"/>
<path transform="translate(399,316)" d="m0 0 5 1 7 4v2h2l3 11 2 5h2l7 18 1 3-4-1-6-12-2-8-3-1-2-9h-2v-6l-4-2-6-4z" fill="#C37953"/>
<path transform="translate(371,294)" d="m0 0 6 1 10 3 3 4 11 2h2v-2l7-2h11l-4 2-8 2v3l-8 2-9-1-9-8-12-5z" fill="#C77D56"/>
<path transform="translate(414,339)" d="m0 0h2l5 12 4 8 5 2v2h11v1h-10v2h-3v-2h-5l-6-7-4-11z" fill="#EAA179"/>
<path transform="translate(487,218)" d="m0 0 5 2 4 5 1 27-3 15 1 5 6 7 2 9v9h-1l-2-9-3-9-2-3-3-1v-9l2-12v-20l-2-9-3-4-3-2z" fill="#8C4A2C"/>
<path transform="translate(489,425)" d="m0 0h1l1 5 3 1 4 18v16l-1 10-2 2-1-25-3-12-2-1z" fill="#D5D3CF"/>
<path transform="translate(505,285)" d="m0 0 5 5 1 3-2 4v13l-7 1v-14l1-10h2z" fill="#0C0B0C"/>
<path transform="translate(319,326)" d="m0 0h1l1 14 2 1v3h2l4 6 9 6 5 2-3 1h-7l-6 1v-2h-2l-3-7-3-10z" fill="#A5623D"/>
<path transform="translate(522,297)" d="m0 0h2v8l-3 5-6-1-3 6h-3l1-7-1-5 3 1 1-4z" fill="#D78963"/>
<path transform="translate(360,403)" d="m0 0 2 1v2l4 3 4 1h8l3-2 10-1h22v1l-8 1h-18l-6 2-2 4-4-2-3 1-1 2h-2l-2-3-6 1v-3l-4 1v-3l-4-1z" fill="#AF6A44"/>
<path transform="translate(390,116)" d="m0 0 3 1 1 4-2 5v10l4-1h3l1 5-4 1-3 4-1-1-1 3-2-1-2-10-1-14 2 1 1 4 1-6z" fill="#C6C3C0"/>
<path transform="translate(624,423)" d="m0 0 5 1 8 4 10 2 10 5-2 2 7 1v3 2l-6-2-28-14z" fill="#C6C3C0"/>
<path transform="translate(318,374)" d="m0 0h1l3 10 7 21-2 1-2-1-1 2-7-20-2-5v-6h2z" fill="#0D0A09"/>
<path transform="translate(352,300)" d="m0 0 10 2 10 1 2 1v-3l3 1v2h-2l-1 5h-10l-1 1h-5v-2l-4-2z" fill="#0D0A09"/>
<path transform="translate(376,328)" d="m0 0 5 1v6l-2 2-5 1h-9l-1-5 5-4z" fill="#201E1F"/>
<path transform="translate(312,178)" d="m0 0 6 1 1 5-3 1 1 5 4 1v4l5 1-1 3-4 1h-4l-3-1-1-12-1-1z" fill="#C8BFB9"/>
<path transform="translate(417,301)" d="m0 0h6l-2 2-6 2-3 9v6l-2-3v-6l-11 3-5 5 3-9-3-1 2-1 13-1v-3z" fill="#8D4B2C"/>
<path transform="translate(406,126)" d="m0 0 1 3v10l-3 2h-4l-3 11-2 1v-5l-4-1 1-4h2l3-4 3 1-1-6 3-1z" fill="#935537"/>
<path transform="translate(459,206)" d="m0 0 4 1 10 3 5 6 3 4 7 1 2 3-9-1-9-10-12-3-27 6-4-1 18-5 10-3z" fill="#D98D65"/>
<path transform="translate(382,295)" d="m0 0 4 1 8 4h9l7-2h15l1 3h-16l-7 1v2l-4 1-9-2-3-3v-2h-5z" fill="#DA8D66"/>
<path transform="translate(463,133)" d="m0 0 2 1 1 8h2l1 5v4h-4v2h-2l-1-11-4 1-2-2 1-5 2-2z" fill="#76432C"/>
<path transform="translate(449,218)" d="m0 0 11 2-1 5-4 4h-6v-2l-4-2v-5z" fill="#E9C7B2"/>
<path transform="translate(454,430)" d="m0 0h5l-2 3-4-1-1 4-7 6-5 2-2 4-8 4h-2v2l-7 1 5-5h5v-2h4v-2h3l1-3 5-5 3-7z" fill="#DA8E66"/>
<path transform="translate(517,290)" d="m0 0 1 2 3 1v3l3-3h2l-1 8-1-4-11 4-1 3-4-1v-6l4-5z" fill="#F3B58F"/>
<path transform="translate(316,163)" d="m0 0 3 4v14l-1-2-3 1-3-2-1-3-1 7-2-1v-15h2l2 5h2l1-6z" fill="#A2745C"/>
<path transform="translate(431,298)" d="m0 0h40l9 2 1 2h-15v2l2 1-4-1 1-4h-39v-1z" fill="#945131"/>
<path transform="translate(367,121)" d="m0 0h6l4 1 3 9-4 3-1-5h-5l-4 2-3-2 1-6z" fill="#2F2521"/>
<path transform="translate(391,330)" d="m0 0h2v16l-2 12-2 4h-3l-1 2v-3h-2v-2l-3 1-2-4h7l2-1 1 3 1-5h-2v-5l3-8z" fill="#CB875D"/>
<path transform="translate(656,426)" d="m0 0 4 1 8 5 3 5 5 5 4 8 1 5-7-6-8-14-10-8z" fill="#543426"/>
<path transform="translate(615,416)" d="m0 0 10 2 13 2 2 4-4-1-10-2 17 6 3 3h-5l-10-4-3-2h-5l-7-5z" fill="#CACEC0"/>
<path transform="translate(485,459)" d="m0 0h2l3 10v16l-3 8h-5l-2-3 5-2 1-7v-18z" fill="#CBD0C0"/>
<path transform="translate(383,141)" d="m0 0 3 3-2 4-4 5h-3l-1-2v2l-4 2-1 3-4 1 2-5 5-8 1 2 1-1 1-3h4z" fill="#C6C3C0"/>
<path transform="translate(379,452)" d="m0 0h22l3 3h16v1l-18 2-17-3-6-2z" fill="#B16644"/>
<path transform="translate(358,362)" d="m0 0 5 1-6 7h-2l-1 3-4-1-1-2h-3l2-6 5-1z" fill="#E4A078"/>
<path transform="translate(378,293)" d="m0 0 9 1 3 2 9 1 5 1 3-1h19l5 1v1h-21l-7 2h-9l-12-6v2l-5-1z" fill="#E49F77"/>
<path transform="translate(409,119)" d="m0 0 3 1-2 10 5 1v3h-2v12l-3 2 1-6-1-2v-7h-2v6h-1l-1-11z" fill="#C6C3C0"/>
<path transform="translate(501,202)" d="m0 0h4l2 7-5 1-7 1-6-5 2-3h9z" fill="#1C1D1F"/>
<path transform="translate(436,332)" d="m0 0 6 1v2l-2 2v2h12l-4 2h-9l-13-3v-4z" fill="#1D1E20"/>
<path transform="translate(408,133)" d="m0 0h2l2 10v3h2l1-3v5l-5 2-1 6-3-1v-16h2z" fill="#9D684E"/>
<path transform="translate(463,430)" d="m0 0 2 1-7 7-5 3-2 2-7 3-6 4-7 3-3-1 11-6 4-4 8-4 11-7z" fill="#8C4A2C"/>
<path transform="translate(359,336)" d="m0 0h4l-1 4-14 5-9 1 2-4 10-4z" fill="#1D1E20"/>
<path transform="translate(429,120)" d="m0 0 5 2 4 2v7l-4-1-3 3-5-5 1-5z" fill="#563526"/>
<path transform="translate(417,405)" d="m0 0 10 1 10 2 8 5 3 1v-6h1v10l-13-5-3-3-20-3z" fill="#B86E49"/>
<path transform="translate(500,315)" d="m0 0 5 5-1 10-3-2-7 2 3-11z" fill="#1B1C1F"/>
<path transform="translate(370,128)" d="m0 0 5 1 1 5 3 1-2 3-3-1 1 5-4-2-2-4-3-1-1-2h-2v-3h5z" fill="#9E735E"/>
<path transform="translate(1076,561)" d="m0 0h27l-4 3-5 2h-12l-5-2z" fill="#201E1F"/>
<path transform="translate(406,409)" d="m0 0h10l-1 5-4 3h-6l-2-2h-5l1-3 7-1z" fill="#F3A980"/>
<path transform="translate(435,398)" d="m0 0 8 1 3 5v6l-5-2-5-4-5-2 1-3z" fill="#0A090A"/>
<path transform="translate(478,309)" d="m0 0 4 2 4 5 4 13h-2l-4-5v-2l-6-2-4-1h-7l2-2 13-1-2-4z" fill="#4E3327"/>
<path transform="translate(429,303)" d="m0 0 10 5 4-2 3 3-2 1-13-1v-4l-6 1v5h2l2 5 2 1h-3v-2l-7-2 1-7z" fill="#12171A"/>
<path transform="translate(472,181)" d="m0 0h3l3 5 2 2v8l-6-2-4-6 1-5z" fill="#030202"/>
<path transform="translate(505,345)" d="m0 0h1v8l-4 18-8 25-2-2 1-5 8-24z" fill="#302522"/>
<path transform="translate(517,188)" d="m0 0 4 1 6 5 5 8-1 4-3-1-3-6-4-2-4-6z" fill="#C9C9C2"/>
<path transform="translate(357,123)" d="m0 0 2 1v2l-2 1 1 6h-3v6l-4 2-2-4h-3v2l-2-1 1-2h3l1-4h2v-5l2 1z" fill="#9E725E"/>
<path transform="translate(477,338)" d="m0 0 2 4h-2v6l-2 3 2 2-2 3h-2l-4-15 1-2h6z" fill="#1C1D1F"/>
<path transform="translate(501,290)" d="m0 0h1l1 17-1 4 5-2-2 9-5-2-2 3-1 5h-1v-8l4-9z" fill="#A76340"/>
<path transform="translate(348,393)" d="m0 0v3l-3 10v9l-2-3-4-10 1-5 4-3z" fill="#C2724F"/>
<path transform="translate(382,375)" d="m0 0 4 1 3 2v2l3 1 1 3h8l11-4 6-2-1 3-7 3-3 1v4h-2l-1-2-12-1-5-6-4-1z" fill="#BA6F4A"/>
<path transform="translate(533,250)" d="m0 0h2l-1 10-5 16-3 10-2 1-1-5 5-12 4-15z" fill="#F4F1EE"/>
<path transform="translate(484,399)" d="m0 0h3v2h-2l-1 4-5 5-6 9-4 1 1-4 5-7 1-3 4-1 1-4z" fill="#C77F57"/>
<path transform="translate(460,209)" d="m0 0 9 2v2h-16l-16 4-6 1h-8l3-2 25-5z" fill="#EEA57D"/>
<path transform="translate(417,188)" d="m0 0 5 1v11h-6l-2-2v-6l1-2h2z" fill="#1D1E20"/>
<path transform="translate(432,137)" d="m0 0h2l-1 8 4-1 1 2h3v7l-1-4h-2v5l-2 1-1-7h-2l-1 2-4-8v-2l-2-1 3-1 2 3z" fill="#904E2F"/>
<path transform="translate(329,297)" d="m0 0h22l8 3-4 1-11 1-5-2-10-1z" fill="#DFCEBF"/>
<path transform="translate(398,317)" d="m0 0 4 1 3 2 5 2-1 7h2l1 5-4-4-5-8h-5l-2 5-3 3 1-6 3-6z" fill="#DB8E67"/>
<path transform="translate(461,303)" d="m0 0 4 1-3 3-3 1-2 11h-2v-2l-3-1-1-7 3-3 2 1 3-3z" fill="#C8C9C0"/>
<path transform="translate(343,147)" d="m0 0h2l-1 9-6 12-2 2-5-1v-6h2v3l6-5 1-8z" fill="#030202"/>
<path transform="translate(363,298)" d="m0 0 11 1 9 4-1 2-3-1-2 4-3-1 1-3h2l-3-3v3l-12-1z" fill="#232020"/>
<path transform="translate(385,134)" d="m0 0 2 1 3 11 1 3h-8l2-5-2-2-3 1v-5l5-2z" fill="#2F2522"/>
<path transform="translate(477,416)" d="m0 0v3l-10 14-7 6-6 1 1-2 5-3 13-14 2-4z" fill="#1A1C1E"/>
<path transform="translate(375,369)" d="m0 0 4 1v3h-2l-2 1 2 4 3 3-4 5-3 1h-13v-1l15-1v-3h-2l-1-9z" fill="#AC6942"/>
<path transform="translate(455,499)" d="m0 0 6 2 1 3 2 1-3 4h-3l-4-5h-6l4-4z" fill="#E0936D"/>
<path transform="translate(480,300)" d="m0 0 3 1v2l-3 2-2 1-1 3-9-3v-2h-2v-2l14-1z" fill="#D69874"/>
<path transform="translate(477,131)" d="m0 0 3 1 2 4h3v2l-4 1v7l-3-4-6 1v-3h3l-1-3h2v-5z" fill="#8A4B2D"/>
<path transform="translate(336,410)" d="m0 0 3 1 5 5 2 6-5-2v2l-4-1-3-9z" fill="#E0966F"/>
<path transform="translate(353,391)" d="m0 0v3l-3 5-3 7-1 7 5-2v-2l2 1-3 5-4 1-2-6 1-6 2-8 4-4z" fill="#AC6942"/>
<path transform="translate(419,374)" d="m0 0m-4 1h4v2h2v2l-3 1h-4l-9 4h-4v-3l6-3 7-2z" fill="#EDA47C"/>
<path transform="translate(426,409)" d="m0 0h7l3 3 12 5 1-7 2 4-1 7h-5l-2-5h-6l-5-4-6-2z" fill="#CC885E"/>
<path transform="translate(319,168)" d="m0 0 2 4v17l1 3 3-1v4h-4v-4l-4-1-1-5 2-1v-13z" fill="#1F1F20"/>
<path transform="translate(304,285)" d="m0 0 2 4v18h2l-2 21h-1l-1-12z" fill="#492F24"/>
<path transform="translate(491,226)" d="m0 0 2 4v25l-2 16h-1v-20l1-5z" fill="#D78C64"/>
<path transform="translate(473,469)" d="m0 0 1 3-1 6 1 2-3 6h2v5l-3 2-3-2 2-10z" fill="#AC6942"/>
<path transform="translate(424,138)" d="m0 0h2v2h2l3 6-1 3h-4l-3 1-2-7z" fill="#1E1E20"/>
<path transform="translate(345,127)" d="m0 0 2 1-1 5-1 2h-2l-2 4-3-2h2l-2-3h-5l2-3 6-2z" fill="#734734"/>
<path transform="translate(312,363)" d="m0 0 3 1 1 6h2l1 4-2 4-1-1-2 3-3-12z" fill="#161515"/>
<path transform="translate(430,154)" d="m0 0h3l1 10h-2l-1 5-2-1v-5l-3-1-1-5 4 1 2 1z" fill="#8E4C2D"/>
<path transform="translate(505,285)" d="m0 0 5 5 1 3-3 5-2-4h-2l-1 3v-10h2z" fill="#030202"/>
<path transform="translate(350,127)" d="m0 0 2 3-3 3-1 3h-3l-2 4-5 9-2-3 2-2v-6h3l2-4 2 1 2-6h2z" fill="#C6C3C0"/>
<path transform="translate(625,420)" d="m0 0 7 1 7 2-2-2 4-1 3 2-1 3 4 4-4-1-17-6z" fill="#C6C3C0"/>
<path transform="translate(412,301)" d="m0 0 4 1-7 2v3l-8 2-9-1-1-2 5-1 10-1z" fill="#AC6942"/>
<path transform="translate(492,271)" d="m0 0 4 2 5 6 2 9v9h-1l-2-9-3-9-2-3-3-1z" fill="#A15C3A"/>
<path transform="translate(290,196)" d="m0 0 3 3 2 5-4 8h-2l-1-2 1-10z" fill="#1A1A1C"/>
<path transform="translate(367,330)" d="m0 0h6l4 2-1 3-5 2-7-2 2-4z" fill="#A56E51"/>
<path transform="translate(364,308)" d="m0 0 8 1v4l-2 1h-9l-3-1 1-3z" fill="#C3987E"/>
<path transform="translate(300,238)" d="m0 0h1l1 15v13l-2-2v-8h-2v-9z" fill="#1A1C1E"/>
<path transform="translate(463,139)" d="m0 0h2l4 6v6h-4v2h-2l-1-13z" fill="#1E1E20"/>
<path transform="translate(412,434)" d="m0 0 5 2 1 4-5 1-7-1 1-4z" fill="#FEC098"/>
<path transform="translate(393,395)" d="m0 0h8l4 2v3h-13z" fill="#F2AD85"/>
<path transform="translate(395,327)" d="m0 0 1 2-2 20-2 10-2 1 1-10 1-7v-9z" fill="#DF9069"/>
<path transform="translate(301,175)" d="m0 0h2l-1 9-3 5-2 2h-4l2-5z" fill="#2B2321"/>
<path transform="translate(318,303)" d="m0 0h1v21l-3-2h-2l3-18z" fill="#AC6942"/>
<path transform="translate(408,115)" d="m0 0 4 1 1 4-4-1-1 4-4 1-2-3 1-5z" fill="#8F4F31"/>
<path transform="translate(580,535)" d="m0 0h22l5 2 2 5-7-4-18-1z" fill="#D1D1C9"/>
<path transform="translate(316,192)" d="m0 0h4l1 2 5 2-1 3-4 1h-4l-2-2v-5z" fill="#DFDEDB"/>
<path transform="translate(466,425)" d="m0 0 1 3-1 2-11 6-5 4-2-1 4-4 1-3 5-1 5-4h3z" fill="#B76D48"/>
<path transform="translate(349,428)" d="m0 0 4 2 3 3v2h3v3h2l2 6-7-6-8-7z" fill="#AE6843"/>
<path transform="translate(486,412)" d="m0 0 1 3-4 18h-1l-1-6-3 1 1-4h2l1-4z" fill="#A8643F"/>
<path transform="translate(344,418)" d="m0 0h3l4 7-1 2-3-2-1 2-5-2-2-3h2v-2l4 1z" fill="#CE8A60"/>
<path transform="translate(319,320)" d="m0 0h2l3 24-1-3-3-1z" fill="#8C4A2C"/>
<path transform="translate(313,193)" d="m0 0 2 4-1 2h5l2-1-3 6h-5l-2-2v-6z" fill="#332723"/>
<path transform="translate(321,411)" d="m0 0h1l1 18 1 6v12h-1l-1-7-1-1z" fill="#CBD0C0"/>
<path transform="translate(379,303)" d="m0 0 5 3-2 4-1 1h-8l1-3h3l1-4z" fill="#D2D0CB"/>
<path transform="translate(425,130)" d="m0 0 1 4-2 7-2 3v2h-2l-2 4 1-5-2-2h2v-4l2-1z" fill="#914E2F"/>
<path transform="translate(431,317)" d="m0 0 15 1 5-1v2h5v2h-12l-13-3z" fill="#4B3226"/>
<path transform="translate(329,451)" d="m0 0 2 2 2 15h-4l-1-7z" fill="#8C4A2C"/>
<path transform="translate(520,310)" d="m0 0 1 3-3 7h-2l-2 5h-1l1-9 5-5z" fill="#F6C2A1"/>
<path transform="translate(520,233)" d="m0 0 7 2-1 5-10-2v-4z" fill="#985F44"/>
<path transform="translate(530,196)" d="m0 0 4 2 4 5v5l-6-3-2-5z" fill="#3A2923"/>
<path transform="translate(404,172)" d="m0 0h3l1 7-3 3-3-1-1-3 2-5z" fill="#030202"/>
<path transform="translate(417,114)" d="m0 0h2v9l3 1-1 6h-2l-1 3-1-2v-6l-2-4h2z" fill="#8D4D2F"/>
<path transform="translate(423,447)" d="m0 0 8 1v2l-10 2-8-1 1-2z" fill="#E49F78"/>
<path transform="translate(489,425)" d="m0 0h1l1 5 3 1 4 18-1 4h-1l-3-17-4-4z" fill="#CACEC0"/>
<path transform="translate(418,345)" d="m0 0 5 2 5 11v2l-4-1-6-12z" fill="#C47954"/>
<path transform="translate(399,316)" d="m0 0 5 1 7 4v2h2l-1 8-1-2h-2v-6l-4-2-6-4z" fill="#CA865C"/>
<path transform="translate(307,310)" d="m0 0 3 1 2 4 1 11-2 5h-1v-10l-3-4z" fill="#955333"/>
<path transform="translate(405,122)" d="m0 0 2 1-1 4-4 7-6 1-1 2v-4l6-4h2l1-5z" fill="#322622"/>
<path transform="translate(400,422)" d="m0 0h10l1 3-3 4h-2v2l-9 1 3-2 5-2v-3l-5-2z" fill="#CC885E"/>
<path transform="translate(391,126)" d="m0 0 2 3 4 1 1-3 2 1 3-1v2l-12 8z" fill="#92563A"/>
<path transform="translate(382,371)" d="m0 0 4 1v3l4 2 3 2v2h2l1 2 5 1v1h-8l-2-4-2-1v-2l-4-2-3-3z" fill="#D58C63"/>
<path transform="translate(410,110)" d="m0 0h10l7 1v2h2l-1 3-5-1v-2l-11-1z" fill="#C9CCC0"/>
<path transform="translate(367,401)" d="m0 0 12 1-2 4-9-1z" fill="#1D1E20"/>
<path transform="translate(413,381)" d="m0 0 4 1-5 3h-2l4 4 9 1 2 1v2l-12-2-5-3 1-4z" fill="#ECA47C"/>
<path transform="translate(452,333)" d="m0 0 4 1-1 4-2-1 1-2h-11l1 2 8 1v1h-12l-1-3 3-2z" fill="#8C4A2C"/>
<path transform="translate(402,312)" d="m0 0 4 1-6 2-4 7-3 8h-2l1-8 1-3 5-5z" fill="#AD6542"/>
<path transform="translate(354,513)" d="m0 0 3 4 3 8-3 1-5-7v-2h2z" fill="#D4D2CE"/>
<path transform="translate(460,459)" d="m0 0h3l-1 4-4 4-4 1 1-5 2-3z" fill="#8C4A2C"/>
<path transform="translate(409,457)" d="m0 0 5 1-1 3h-20v-1l14-2z" fill="#0F1519"/>
<path transform="translate(379,452)" d="m0 0 20 2 4 2-1 2-17-3-6-2z" fill="#8D4B2D"/>
<path transform="translate(495,453)" d="m0 0h3v12l-1 10-2 2z" fill="#D3D2CD"/>
<path transform="translate(306,329)" d="m0 0 1 4h2l1 14-1 5h-1l-2-15z" fill="#3D2B23"/>
<path transform="translate(522,297)" d="m0 0h2v8l-3 2-3-5 1-4z" fill="#C47551"/>
<path transform="translate(534,219)" d="m0 0h1l1 8-2 3-1-2-5-1-1-5 4 1 1 1z" fill="#89492B"/>
<path transform="translate(497,167)" d="m0 0h3l1 4h3l4 5-5 1-7-8z" fill="#0C1013"/>
<path transform="translate(406,126)" d="m0 0 1 3v10l-3 1-2-7z" fill="#82472C"/>
<path transform="translate(432,395)" d="m0 0 8 1v1l-10 2-7 3-3-1h2v-2l5-3z" fill="#B46C46"/>
<path transform="translate(374,361)" d="m0 0h3v2h4l1 4-2 3-4-2-2-3z" fill="#E49F77"/>
<path transform="translate(374,146)" d="m0 0 2 4v3l-4 2-1 3-4 1 2-5z" fill="#C4BEBA"/>
<path transform="translate(446,440)" d="m0 0 2 1-5 6-12 6-3-1 11-6 4-4z" fill="#9E5A38"/>
<path transform="translate(371,294)" d="m0 0 6 1 10 3 4 5-1 3-7-6-12-5z" fill="#9D5837"/>
<path transform="translate(322,297)" d="m0 0h7l3 3-10 2-3-3z" fill="#9C5738"/>
<path transform="translate(438,445)" d="m0 0 2 1-8 5-4 1v2l-7 1 5-5h5v-2h4v-2z" fill="#BD744F"/>
<path transform="translate(627,422)" d="m0 0 10 3 9 4-4 1-9-3-6-4z" fill="#CBD0C0"/>
<path transform="translate(522,288)" d="m0 0h4l1 3-4 5h-2l-1-3-2-1v-3z" fill="#FBF7F5"/>
<path transform="translate(473,308)" d="m0 0 5 1 5 5-1 3h-8v-1l5-1-2-1v-2h-2v-3z" fill="#16191B"/>
<path transform="translate(466,208)" d="m0 0 10 1 6 9 1 3-4-2-6-8-7-2z" fill="#BA6F4A"/>
<path transform="translate(459,204)" d="m0 0 7 1 8 3-2 1-9-1-4-1-6 1 4-3z" fill="#B26B45"/>
<path transform="translate(445,146)" d="m0 0 5 1 1 5-2 2-4-1z" fill="#222020"/>
<path transform="translate(396,448)" d="m0 0 6 2 2 5-3-2h-9l-2-2z" fill="#CC885E"/>
<path transform="translate(326,330)" d="m0 0 3 1 3 5 1 3-7-1-1-4z" fill="#1D1E20"/>
<path transform="translate(509,320)" d="m0 0 2 1 2 6-1 4h-2l-2 3v-13z" fill="#FABB93"/>
<path transform="translate(347,491)" d="m0 0 4 2 2 4-1 3 1 4-1 3-2-4-3-9z" fill="#D5D5CF"/>
<path transform="translate(292,427)" d="m0 0 2 3-2 7-4 7-1-4 4-12z" fill="#E9C7B2"/>
<path transform="translate(329,297)" d="m0 0h8l9 2 2 2-4 1-5-2-10-1z" fill="#CCC0B6"/>
<path transform="translate(526,194)" d="m0 0 4 4 2 4-1 4-3-1-3-7z" fill="#C7C5C0"/>
<path transform="translate(479,146)" d="m0 0 2 3-1 3-3 3h-2l-1 6h-2l-1 2v-5h2l1-5h2v-2l2-1z" fill="#925030"/>
<path transform="translate(360,125)" d="m0 0 2 1 1 7 2 1h-2v6l-2 1-1-4 1-6h-2z" fill="#8D5237"/>
<path transform="translate(497,378)" d="m0 0h2l-3 12-2 6-2-2 1-5z" fill="#3E2B23"/>
<path transform="translate(468,130)" d="m0 0 3 1v3l2 1-2 5-4 1 1-9zm-3 9 2 4-2-1z" fill="#9A654B"/>
<path transform="translate(349,301)" d="m0 0 4 1 2 5-4 1h-3l-1-6z" fill="#CDC7C3"/>
<path transform="translate(518,195)" d="m0 0 3 3-2 5-5 1 1-7z" fill="#0F1519"/>
<path transform="translate(315,305)" d="m0 0 3 1-3 11h-2v-8z" fill="#C37651"/>
<path transform="translate(327,293)" d="m0 0h2v2l7 1v1l-14 1-5 2v-3z" fill="#1B1C1F"/>
<path transform="translate(520,184)" d="m0 0 6 5 5 5 1 2h-2l-1 2-4-5-2-2v-2l-3-3z" fill="#7F442A"/>
<path transform="translate(387,138)" d="m0 0h1l3 11h-8l2-5z" fill="#663E2B"/>
<path transform="translate(465,162)" d="m0 0 1 2h3l2 3-1 4-2-1v-2h-2l-1 4-1-3z" fill="#945231"/>
<path transform="translate(332,138)" d="m0 0 4 1 2-1 1 6-3 2-4-4z" fill="#643A27"/>
<path transform="translate(446,128)" d="m0 0h5l-2 7-4 1z" fill="#77452D"/>
<path transform="translate(479,429)" d="m0 0 2 1-1 7h-3l-2-4z" fill="#CC885E"/>
<path transform="translate(624,423)" d="m0 0 5 1 9 5v2l-6-2-8-5z" fill="#C7C6C0"/>
<path transform="translate(449,410)" d="m0 0 2 4-1 7h-5l-2-3 1-3 4 2z" fill="#CB865C"/>
<path transform="translate(323,385)" d="m0 0 3 1 2 13-3-2-2-8z" fill="#DA936B"/>
<path transform="translate(496,372)" d="m0 0h3l-2 9-2 1-2 3 1-8z" fill="#9F5B39"/>
<path transform="translate(335,133)" d="m0 0 4 1 1 3-2 1-2 3v-2l-3 1-1-5 2 1z" fill="#C4BFBB"/>
<path transform="translate(484,404)" d="m0 0v3l-7 10-2-3 7-9z" fill="#9F5C39"/>
<path transform="translate(423,307)" d="m0 0 2 4h2l2 5 2 1h-3v-2l-7-2z" fill="#5B3626"/>
<path transform="translate(488,183)" d="m0 0h3l4 4v4l-4-1-1-3h-2z" fill="#0F1519"/>
<path transform="translate(329,133)" d="m0 0 1 2 2 1h-2l-2 4-2 2-1-5zm3 0 3 1-1 3z" fill="#C8C7C1"/>
<path transform="translate(341,487)" d="m0 0 3 3 2 8-1 2-4-2-1-2h3z" fill="#CBD0C0"/>
<path transform="translate(448,408)" d="m0 0h1v10l-7-3v-2l-3-1 2-1 7 3z" fill="#B46D47"/>
<path transform="translate(359,385)" d="m0 0 4 1h-3l-1 3-8 4-2-1 1-2h4l2-4z" fill="#BC6F4B"/>
<path transform="translate(393,305)" d="m0 0h11l-1 2h-2v2l-9-1-1-2z" fill="#B96C49"/>
<path transform="translate(308,166)" d="m0 0h2l1 2-1 14-2-1z" fill="#9C6448"/>
<path transform="translate(396,139)" d="m0 0 2 1-1 5-1 3-5-1 1-4h2z" fill="#623C2A"/>
<path transform="translate(429,120)" d="m0 0 5 2-2 1v3h-3l-2 4-1-6z" fill="#7F4930"/>
<path transform="translate(438,526)" d="m0 0h3l2 2h4v2h-12l1-3z" fill="#DC8E67"/>
<path transform="translate(656,426)" d="m0 0 4 1 8 5v3l-4-2-8-6z" fill="#422C24"/>
<path transform="translate(295,420)" d="m0 0h1v8l-3 3-1-4 2-6z" fill="#F0C4A8"/>
<path transform="translate(312,363)" d="m0 0 3 1 2 10-2-1-3-5-1-4z" fill="#1D1D1E"/>
<path transform="translate(359,336)" d="m0 0h4l-1 4-9 1-1-2h4v-2z" fill="#4A3024"/>
<path transform="translate(358,142)" d="m0 0 3 1 2 2 1 4-2 3-1-5h-3z" fill="#C6C3C0"/>
<path transform="translate(452,432)" d="m0 0 1 3-5 5-2-1 2-6z" fill="#CC885E"/>
<path transform="translate(452,299)" d="m0 0h8l3 2-1 1h-13v-2z" fill="#030202"/>
<path transform="translate(298,195)" d="m0 0 2 1-1 2 6 1v1l-9 3 1-7z" fill="#12161A"/>
<path transform="translate(503,168)" d="m0 0h5v2l3-1 2 4-4-1-1 2-1-3h-4z" fill="#8C5136"/>
<path transform="translate(474,137)" d="m0 0h5l1 4-6 2-2-1v-2h3z" fill="#9F6A50"/>
<path transform="translate(481,426)" d="m0 0h1v14h-1l-1-10-5 3 2-5z" fill="#B76D49"/>
<path transform="translate(441,403)" d="m0 0 5 1v6l-5-2-2-3h2z" fill="#1D1E20"/>
<path transform="translate(493,328)" d="m0 0 1 3-2 2-5 2-3 4 1-5 2-3h4v-2z" fill="#A6603E"/>
<path transform="translate(495,272)" d="m0 0h4l3 5 1 11h-1l-3-11z" fill="#1D1E20"/>
<path transform="translate(316,185)" d="m0 0 6 5v2l3-1v4h-4v-4l-4-1z" fill="#5E3A29"/>
<path transform="translate(418,376)" d="m0 0 3 1v2l-3 1h-4l-6 3-3-1z" fill="#DB8E66"/>
<path transform="translate(318,329)" d="m0 0h1l1 16-3-3v-8-3z" fill="#C2724F"/>
<path transform="translate(506,309)" d="m0 0 1 2-2 7-3-1v-5z" fill="#C0B3AB"/>
<path transform="translate(461,303)" d="m0 0 4 1-3 3-3 1-2 3-1-4 3-3z" fill="#C6C3C0"/>
<path transform="translate(533,250)" d="m0 0h2l-1 10-3 3 1-8z" fill="#E6E6E2"/>
<path transform="translate(423,218)" d="m0 0h5l-4 2-9 4-3-1 4-3z" fill="#EEA67E"/>
<path transform="translate(430,154)" d="m0 0h3l1 6-7 1 1-4 3 2z" fill="#9C5937"/>
<path transform="translate(370,121)" d="m0 0 7 1 1 5-3 1v-4l-1 2h-2l-3-4z" fill="#8C4A2C"/>
</svg>
